HIERARCHY
ROOT mixamorig:Hips
{
	OFFSET 0.000000 201.639420 0.000000
	CHANNELS 6 Xposition Yposition Zposition Xrotation Yrotation Zrotation
	JOINT mixamorig:Spine
	{
		OFFSET 0.006200 19.524994 -2.481800
		CHANNELS 3 Xrotation Yrotation Zrotation
		JOINT mixamorig:Spine1
		{
			OFFSET -0.000900 22.835007 -2.825400
			CHANNELS 3 Xrotation Yrotation Zrotation
			JOINT mixamorig:Spine2
			{
				OFFSET -0.020600 26.552490 -3.193300
				CHANNELS 3 Xrotation Yrotation Zrotation
				JOINT mixamorig:Neck
				{
					OFFSET -0.060000 30.701813 1.352200
					CHANNELS 3 Xrotation Yrotation Zrotation
					JOINT mixamorig:Head
					{
						OFFSET -0.087200 22.547607 3.670900
						CHANNELS 3 Xrotation Yrotation Zrotation
						JOINT mixamorig:HeadTop_End
						{
							OFFSET -0.830600 40.355194 7.893500
							CHANNELS 3 Xrotation Yrotation Zrotation
							End Site
							{
								OFFSET 0.000000 30.592346 0.000000
							}
						}
						JOINT mixamorig:RightEye
						{
							OFFSET -6.302100 18.118591 16.197100
							CHANNELS 3 Xrotation Yrotation Zrotation
							End Site
							{
								OFFSET 0.000000 30.592346 0.000000
							}
						}
						JOINT mixamorig:LeftEye
						{
							OFFSET 6.741500 18.382690 16.401899
							CHANNELS 3 Xrotation Yrotation Zrotation
							End Site
							{
								OFFSET 0.000000 30.592346 0.000000
							}
						}
					}
				}
				JOINT mixamorig:LeftShoulder
				{
					OFFSET 11.924900 18.230499 1.425400
					CHANNELS 3 Xrotation Yrotation Zrotation
					JOINT mixamorig:LeftArm
					{
						OFFSET 25.435989 -0.697632 -5.229300
						CHANNELS 3 Xrotation Yrotation Zrotation
						JOINT mixamorig:LeftForeArm
						{
							OFFSET 54.684776 0.000000 0.000000
							CHANNELS 3 Xrotation Yrotation Zrotation
							JOINT mixamorig:LeftHand
							{
								OFFSET 55.098175 0.000000 0.000000
								CHANNELS 3 Xrotation Yrotation Zrotation
								JOINT mixamorig:LeftHandMiddle1
								{
									OFFSET 23.369751 0.000000 0.000000
									CHANNELS 3 Xrotation Yrotation Zrotation
									JOINT mixamorig:LeftHandMiddle2
									{
										OFFSET 6.378677 0.000000 0.000000
										CHANNELS 3 Xrotation Yrotation Zrotation
										JOINT mixamorig:LeftHandMiddle3
										{
											OFFSET 6.148331 0.000000 0.000000
											CHANNELS 3 Xrotation Yrotation Zrotation
											JOINT mixamorig:LeftHandMiddle4
											{
												OFFSET 6.582504 0.000000 0.000000
												CHANNELS 3 Xrotation Yrotation Zrotation
												End Site
												{
													OFFSET -1.168900 6.395691 1.028606
												}
											}
										}
									}
								}
								JOINT mixamorig:LeftHandThumb1
								{
									OFFSET 7.235672 -3.848206 5.434273
									CHANNELS 3 Xrotation Yrotation Zrotation
									JOINT mixamorig:LeftHandThumb2
									{
										OFFSET 6.568451 -3.792297 3.792300
										CHANNELS 3 Xrotation Yrotation Zrotation
										JOINT mixamorig:LeftHandThumb3
										{
											OFFSET 6.063080 -3.500519 3.500518
											CHANNELS 3 Xrotation Yrotation Zrotation
											JOINT mixamorig:LeftHandThumb4
											{
												OFFSET 4.793182 -2.767334 2.767349
												CHANNELS 3 Xrotation Yrotation Zrotation
												End Site
												{
													OFFSET 0.101639 6.054260 1.275483
												}
											}
										}
									}
								}
								JOINT mixamorig:LeftHandIndex1
								{
									OFFSET 23.101074 -0.309540 4.992809
									CHANNELS 3 Xrotation Yrotation Zrotation
									JOINT mixamorig:LeftHandIndex2
									{
										OFFSET 6.226883 0.000000 0.000000
										CHANNELS 3 Xrotation Yrotation Zrotation
										JOINT mixamorig:LeftHandIndex3
										{
											OFFSET 6.094330 0.000000 0.000000
											CHANNELS 3 Xrotation Yrotation Zrotation
											JOINT mixamorig:LeftHandIndex4
											{
												OFFSET 5.482605 0.000000 0.000000
												CHANNELS 3 Xrotation Yrotation Zrotation
												End Site
												{
													OFFSET -1.427902 5.233032 0.797164
												}
											}
										}
									}
								}
								JOINT mixamorig:LeftHandRing1
								{
									OFFSET 22.299240 0.021149 -3.964172
									CHANNELS 3 Xrotation Yrotation Zrotation
									JOINT mixamorig:LeftHandRing2
									{
										OFFSET 6.321869 0.000000 0.000000
										CHANNELS 3 Xrotation Yrotation Zrotation
										JOINT mixamorig:LeftHandRing3
										{
											OFFSET 5.899796 0.000000 0.000000
											CHANNELS 3 Xrotation Yrotation Zrotation
											JOINT mixamorig:LeftHandRing4
											{
												OFFSET 6.517899 0.000000 0.000000
												CHANNELS 3 Xrotation Yrotation Zrotation
												End Site
												{
													OFFSET -1.637299 6.232208 0.980890
												}
											}
										}
									}
								}
								JOINT mixamorig:LeftHandPinky1
								{
									OFFSET 20.463791 -0.302338 -8.562233
									CHANNELS 3 Xrotation Yrotation Zrotation
									JOINT mixamorig:LeftHandPinky2
									{
										OFFSET 6.908646 0.000000 0.000000
										CHANNELS 3 Xrotation Yrotation Zrotation
										JOINT mixamorig:LeftHandPinky3
										{
											OFFSET 4.622849 0.000000 0.000000
											CHANNELS 3 Xrotation Yrotation Zrotation
											JOINT mixamorig:LeftHandPinky4
											{
												OFFSET 5.216080 0.000000 0.000000
												CHANNELS 3 Xrotation Yrotation Zrotation
												End Site
												{
													OFFSET -0.606308 5.116241 0.814926
												}
											}
										}
									}
								}
							}
						}
					}
				}
				JOINT mixamorig:RightShoulder
				{
					OFFSET -12.001300 18.284088 1.348900
					CHANNELS 3 Xrotation Yrotation Zrotation
					JOINT mixamorig:RightArm
					{
						OFFSET -25.308500 -0.751312 -5.164599
						CHANNELS 3 Xrotation Yrotation Zrotation
						JOINT mixamorig:RightForeArm
						{
							OFFSET -54.684429 0.000000 0.000000
							CHANNELS 3 Xrotation Yrotation Zrotation
							JOINT mixamorig:RightHand
							{
								OFFSET -55.150291 0.000000 0.000000
								CHANNELS 3 Xrotation Yrotation Zrotation
								JOINT mixamorig:RightHandMiddle1
								{
									OFFSET -23.317566 0.000000 0.000000
									CHANNELS 3 Xrotation Yrotation Zrotation
									JOINT mixamorig:RightHandMiddle2
									{
										OFFSET -6.378403 0.000000 0.000000
										CHANNELS 3 Xrotation Yrotation Zrotation
										JOINT mixamorig:RightHandMiddle3
										{
											OFFSET -6.148193 0.000000 0.000000
											CHANNELS 3 Xrotation Yrotation Zrotation
											JOINT mixamorig:RightHandMiddle4
											{
												OFFSET -6.583389 0.000000 0.000000
												CHANNELS 3 Xrotation Yrotation Zrotation
												End Site
												{
													OFFSET 1.171692 6.395905 1.029786
												}
											}
										}
									}
								}
								JOINT mixamorig:RightHandThumb1
								{
									OFFSET -7.190521 -3.860474 5.435846
									CHANNELS 3 Xrotation Yrotation Zrotation
									JOINT mixamorig:RightHandThumb2
									{
										OFFSET -6.567429 -3.791718 3.791708
										CHANNELS 3 Xrotation Yrotation Zrotation
										JOINT mixamorig:RightHandThumb3
										{
											OFFSET -6.062469 -3.500153 3.500166
											CHANNELS 3 Xrotation Yrotation Zrotation
											JOINT mixamorig:RightHandThumb4
											{
												OFFSET -4.792618 -2.767029 2.767022
												CHANNELS 3 Xrotation Yrotation Zrotation
												End Site
												{
													OFFSET -0.100327 6.053253 1.276754
												}
											}
										}
									}
								}
								JOINT mixamorig:RightHandIndex1
								{
									OFFSET -23.048981 -0.310791 4.992554
									CHANNELS 3 Xrotation Yrotation Zrotation
									JOINT mixamorig:RightHandIndex2
									{
										OFFSET -6.227539 0.000000 0.000000
										CHANNELS 3 Xrotation Yrotation Zrotation
										JOINT mixamorig:RightHandIndex3
										{
											OFFSET -6.095047 0.000000 0.000000
											CHANNELS 3 Xrotation Yrotation Zrotation
											JOINT mixamorig:RightHandIndex4
											{
												OFFSET -5.484772 0.000000 0.000000
												CHANNELS 3 Xrotation Yrotation Zrotation
												End Site
												{
													OFFSET 1.420593 5.237305 0.797056
												}
											}
										}
									}
								}
								JOINT mixamorig:RightHandRing1
								{
									OFFSET -22.246323 0.020569 -3.963762
									CHANNELS 3 Xrotation Yrotation Zrotation
									JOINT mixamorig:RightHandRing2
									{
										OFFSET -6.322128 0.000000 0.000000
										CHANNELS 3 Xrotation Yrotation Zrotation
										JOINT mixamorig:RightHandRing3
										{
											OFFSET -5.900024 0.000000 0.000000
											CHANNELS 3 Xrotation Yrotation Zrotation
											JOINT mixamorig:RightHandRing4
											{
												OFFSET -6.518356 0.000000 0.000000
												CHANNELS 3 Xrotation Yrotation Zrotation
												End Site
												{
													OFFSET 1.636398 6.232697 0.982186
												}
											}
										}
									}
								}
								JOINT mixamorig:RightHandPinky1
								{
									OFFSET -20.411011 -0.303314 -8.561701
									CHANNELS 3 Xrotation Yrotation Zrotation
									JOINT mixamorig:RightHandPinky2
									{
										OFFSET -6.907349 0.000000 0.000000
										CHANNELS 3 Xrotation Yrotation Zrotation
										JOINT mixamorig:RightHandPinky3
										{
											OFFSET -4.623840 0.000000 0.000000
											CHANNELS 3 Xrotation Yrotation Zrotation
											JOINT mixamorig:RightHandPinky4
											{
												OFFSET -5.218353 0.000000 0.000000
												CHANNELS 3 Xrotation Yrotation Zrotation
												End Site
												{
													OFFSET 0.602097 5.118835 0.816273
												}
											}
										}
									}
								}
							}
						}
					}
				}
			}
		}
	}
	JOINT mixamorig:LeftUpLeg
	{
		OFFSET 18.168400 -13.561905 -0.039000
		CHANNELS 3 Xrotation Yrotation Zrotation
		JOINT mixamorig:LeftLeg
		{
			OFFSET 0.577358 -80.825211 -3.695000
			CHANNELS 3 Xrotation Yrotation Zrotation
			JOINT mixamorig:LeftFoot
			{
				OFFSET -0.577356 -83.370262 -6.520700
				CHANNELS 3 Xrotation Yrotation Zrotation
				JOINT mixamorig:LeftToeBase
				{
					OFFSET 0.750401 -20.798306 25.135401
					CHANNELS 3 Xrotation Yrotation Zrotation
					JOINT mixamorig:LeftToe_End
					{
						OFFSET -0.000500 0.001200 19.917799
						CHANNELS 3 Xrotation Yrotation Zrotation
						End Site
						{
							OFFSET 0.000000 19.917805 0.000000
						}
					}
				}
			}
		}
	}
	JOINT mixamorig:RightUpLeg
	{
		OFFSET -18.162500 -13.585098 -0.041000
		CHANNELS 3 Xrotation Yrotation Zrotation
		JOINT mixamorig:RightLeg
		{
			OFFSET -0.595024 -80.945297 -3.631900
			CHANNELS 3 Xrotation Yrotation Zrotation
			JOINT mixamorig:RightFoot
			{
				OFFSET 0.595024 -83.218193 -6.561200
				CHANNELS 3 Xrotation Yrotation Zrotation
				JOINT mixamorig:RightToeBase
				{
					OFFSET -0.753601 -20.807106 25.115000
					CHANNELS 3 Xrotation Yrotation Zrotation
					JOINT mixamorig:RightToe_End
					{
						OFFSET 0.000299 0.001700 19.918200
						CHANNELS 3 Xrotation Yrotation Zrotation
						End Site
						{
							OFFSET 0.000000 19.918203 0.000000
						}
					}
				}
			}
		}
	}
}
MOTION
Frames: 4
Frame Time: 0.033333
13.236940 180.832748 28.521505 -5.581671 1.222276 4.606140 -1.069990 7.731264 4.434906 -2.276883 14.684888 7.290173 -2.300117 14.697785 7.258701 9.247607 -5.668149 0.621733 12.129981 -29.518080 4.620793 -0.000000 0.000000 0.000002 -0.000000 0.000000 0.000002 -0.000000 0.000000 0.000002 0.898260 -3.698801 -8.513053 53.031013 -2.190801 -34.771550 0.000007 -116.250994 -0.000008 -5.786748 -15.305312 6.570805 0.198128 1.643113 -13.750818 0.078386 1.038080 -8.635516 0.019549 0.519555 -4.309412 0.000001 0.000003 -0.000003 -0.317950 10.635278 1.350749 3.422513 51.506443 17.170143 2.125230 23.164564 9.641552 0.000000 -0.000000 0.000000 0.198587 1.644986 -13.766813 0.078101 1.036175 -8.619525 0.019552 0.519554 -4.309413 0.000000 -0.000001 0.000000 0.198596 1.644991 -13.766811 0.078082 1.036177 -8.619530 0.019558 0.519551 -4.309414 -0.000004 0.000000 0.000001 1.149627 5.586659 -13.316407 0.069336 -3.018812 -9.124497 0.019556 0.519555 -4.309414 0.000002 0.000002 -0.000000 2.843476 11.105768 11.238764 -65.552734 11.004639 30.638429 0.000010 17.483319 -0.000016 -74.396046 41.839345 3.767336 5.888481 -6.867330 81.205745 6.741593 -6.945185 88.291526 1.951042 -4.833762 43.940974 -0.000001 -0.000001 0.000001 31.348516 -12.022237 59.276480 -46.817320 1.430935 -68.330326 -24.626677 -7.304649 -38.587062 -0.000002 -0.000001 0.000003 5.888485 -6.867318 81.205745 6.741554 -6.945146 88.291506 1.951055 -4.833769 43.940991 0.000001 0.000002 -0.000002 5.888487 -6.867343 81.205751 6.741586 -6.945193 88.291519 1.951045 -4.833756 43.940984 0.000000 0.000002 0.000002 5.888479 -6.867315 81.205751 6.741577 -6.945176 88.291526 1.951042 -4.833756 43.940980 0.000002 0.000001 -0.000001 -38.264263 -0.306167 -4.483390 55.652361 -8.407263 -1.006452 -10.874771 -16.132869 2.126909 -0.002726 -0.000007 -0.000001 -0.000000 -0.000000 0.000000 0.968130 -11.936806 -23.395013 47.168737 -0.844485 -0.250319 18.764942 -0.232973 3.021229 -53.199541 -3.361082 17.534807 0.000001 0.000001 0.000000 
12.782343 179.895920 29.321156 -5.898932 1.250865 3.993631 -1.152624 7.792718 4.596588 -2.440410 14.834594 7.451444 -2.467976 14.848790 7.416494 9.184441 -5.667043 0.701228 13.118127 -29.506520 5.424524 -0.000001 0.000000 0.000000 -0.000001 0.000000 0.000000 -0.000001 0.000000 0.000000 0.880272 -3.568102 -8.367136 51.793867 1.699775 -34.104897 0.000040 -119.097845 0.000029 -9.113013 -16.790354 4.466094 0.198130 1.643115 -13.750817 0.078395 1.038083 -8.635516 0.019555 0.519555 -4.309411 0.000007 -0.000000 0.000000 -0.317949 10.635279 1.350751 3.422520 51.506446 17.170143 2.125229 23.164564 9.641552 0.000000 0.000000 0.000003 0.198587 1.644990 -13.766815 0.078094 1.036175 -8.619525 0.019547 0.519553 -4.309412 -0.000001 -0.000000 -0.000001 0.198596 1.644995 -13.766814 0.078087 1.036177 -8.619531 0.019557 0.519554 -4.309417 0.000000 0.000000 -0.000000 1.149625 5.586666 -13.316404 0.069336 -3.018811 -9.124498 0.019553 0.519555 -4.309414 0.000000 0.000000 0.000001 2.824754 11.083210 11.234992 -65.279171 11.468316 31.681283 -0.000028 16.977659 0.000032 -73.929086 42.335005 1.863051 5.888482 -6.867329 81.205751 6.741585 -6.945183 88.291526 1.951042 -4.833763 43.940980 0.000000 0.000002 0.000005 31.348519 -12.022234 59.276480 -46.817323 1.430935 -68.330326 -24.626679 -7.304649 -38.587058 0.000000 -0.000000 0.000003 5.888480 -6.867318 81.205745 6.741560 -6.945147 88.291506 1.951050 -4.833773 43.940991 -0.000002 -0.000003 0.000002 5.888487 -6.867340 81.205751 6.741583 -6.945194 88.291519 1.951046 -4.833752 43.940987 -0.000003 0.000005 0.000000 5.888475 -6.867319 81.205751 6.741577 -6.945176 88.291526 1.951044 -4.833763 43.940991 0.000003 0.000002 -0.000001 -38.594004 -0.356409 -3.557866 57.487346 -8.422235 -1.021269 -11.979246 -16.583300 2.198476 -0.007118 -0.000007 -0.000002 -0.000000 0.000001 0.000000 1.442242 -12.408664 -22.861524 47.821071 -1.044703 -0.253838 17.669877 -0.047720 2.664971 -52.831414 -3.190829 17.630726 -0.000000 -0.000000 0.000000 
12.345572 178.913345 30.388702 -6.366809 1.427407 3.414115 -1.266282 7.874698 4.867099 -2.653609 15.073345 7.730502 -2.687322 15.089805 7.690169 9.097299 -5.713737 0.826981 14.132754 -29.653324 6.169143 -0.000001 -0.000000 -0.000000 -0.000001 -0.000000 -0.000000 -0.000001 -0.000000 -0.000000 0.862000 -3.448941 -8.182795 48.954254 6.194056 -33.432068 0.000021 -122.446714 0.000022 -12.208377 -18.073492 1.943429 0.198130 1.643114 -13.750820 0.078394 1.038080 -8.635513 0.019550 0.519555 -4.309414 0.000001 -0.000001 -0.000002 -0.317949 10.635279 1.350749 3.422519 51.506446 17.170141 2.125228 23.164563 9.641554 0.000001 0.000000 -0.000002 0.198593 1.644989 -13.766819 0.078096 1.036175 -8.619531 0.019544 0.519552 -4.309414 -0.000002 0.000000 -0.000001 0.198595 1.644992 -13.766813 0.078086 1.036176 -8.619525 0.019556 0.519556 -4.309412 0.000002 0.000001 0.000001 1.149623 5.586664 -13.316407 0.069339 -3.018811 -9.124498 0.019554 0.519558 -4.309414 -0.000005 -0.000001 0.000000 2.805789 11.045942 11.232623 -65.690362 12.231136 33.330124 -0.000018 14.224320 -0.000028 -74.898420 43.654556 1.786040 5.888482 -6.867331 81.205751 6.741589 -6.945185 88.291533 1.951039 -4.833762 43.940974 -0.000001 0.000003 0.000000 31.348519 -12.022237 59.276480 -46.817317 1.430935 -68.330326 -24.626681 -7.304653 -38.587058 0.000001 0.000000 0.000003 5.888485 -6.867317 81.205738 6.741556 -6.945147 88.291506 1.951053 -4.833767 43.940991 0.000002 0.000000 -0.000007 5.888490 -6.867340 81.205751 6.741584 -6.945194 88.291519 1.951045 -4.833757 43.940984 -0.000001 0.000002 0.000001 5.888478 -6.867317 81.205751 6.741584 -6.945179 88.291526 1.951041 -4.833757 43.940984 -0.000002 -0.000002 0.000002 -38.670277 -0.363837 -2.655122 59.358961 -8.345226 -1.038859 -13.288288 -17.307040 2.475141 0.001750 0.000001 0.000000 0.000000 0.000001 0.000000 2.327359 -13.250425 -22.373219 48.211618 -0.887653 -0.253640 16.169290 -0.197259 2.393031 -52.266062 -2.915282 17.419257 0.000000 -0.000000 0.000000 
12.122968 178.206268 31.779808 -7.080728 1.550390 3.062092 -1.365819 8.000483 5.222263 -2.844091 15.480622 8.131181 -2.884240 15.499156 8.086233 9.015349 -5.750075 0.912691 15.014332 -29.690976 6.596014 -0.000000 -0.000000 -0.000000 -0.000000 -0.000000 -0.000000 -0.000000 -0.000000 -0.000000 0.845601 -3.336880 -8.011032 45.307797 9.778964 -32.874981 -0.000026 -125.627874 -0.000013 -13.717942 -18.845846 -0.129359 0.198130 1.643115 -13.750818 0.078387 1.038081 -8.635513 0.019549 0.519554 -4.309411 -0.000002 0.000000 0.000000 -0.317956 10.635281 1.350750 3.422518 51.506443 17.170139 2.125230 23.164561 9.641552 0.000001 -0.000000 0.000002 0.198583 1.644991 -13.766815 0.078097 1.036174 -8.619531 0.019550 0.519554 -4.309414 -0.000000 0.000001 -0.000002 0.198591 1.644993 -13.766811 0.078081 1.036177 -8.619528 0.019554 0.519555 -4.309412 -0.000007 -0.000000 -0.000003 1.149624 5.586665 -13.316406 0.069340 -3.018812 -9.124495 0.019558 0.519558 -4.309413 0.000003 0.000001 -0.000000 2.791976 11.002663 11.231882 -66.901566 12.656683 35.960246 0.000011 9.463085 -0.000001 -77.497239 45.404956 3.978130 5.888479 -6.867329 81.205751 6.741591 -6.945181 88.291526 1.951041 -4.833761 43.940974 0.000001 -0.000000 -0.000000 31.348516 -12.022232 59.276480 -46.817320 1.430938 -68.330319 -24.626679 -7.304648 -38.587065 -0.000001 0.000000 0.000002 5.888481 -6.867316 81.205745 6.741550 -6.945146 88.291506 1.951054 -4.833772 43.940991 0.000002 0.000002 -0.000000 5.888488 -6.867340 81.205751 6.741588 -6.945192 88.291519 1.951043 -4.833753 43.940991 0.000000 -0.000001 -0.000000 5.888475 -6.867318 81.205751 6.741579 -6.945175 88.291526 1.951046 -4.833762 43.940984 -0.000003 -0.000003 -0.000001 -38.095827 -0.142488 -2.003036 60.834050 -8.146934 -1.047578 -14.518569 -18.149928 3.183616 0.019872 0.000006 -0.000001 -0.000000 0.000001 -0.000000 3.885942 -14.547688 -22.268015 47.740703 0.258558 -0.211162 14.338836 -0.771360 2.297279 -52.473908 -2.304446 15.206795 -0.000000 0.000001 -0.000000 
